<?xml version="1.0" encoding="UTF-8" standalone="no"?><!DOCTYPE svg PUBLIC "-//W3C//DTD SVG 1.1//EN" "http://www.w3.org/Graphics/SVG/1.1/DTD/svg11.dtd"><svg width="100%" height="100%" viewBox="0 0 4445 3334" version="1.1" xmlns="http://www.w3.org/2000/svg" xmlns:xlink="http://www.w3.org/1999/xlink" xml:space="preserve" xmlns:serif="http://www.serif.com/" style="fill-rule:evenodd;clip-rule:evenodd;stroke-linejoin:round;stroke-miterlimit:2;"><g><path d="M1309.49,2101.98l154.188,266.535l0.049,0.031c30.367,60.136 92.662,101.406 164.631,101.406l0.141,-0.006l0,0.006l1023.39,-0l-212.368,-367.972l-1130.03,0Z" style="fill:#454342;fill-rule:nonzero;"/><path d="M3134.96,2103.87c-0,-36.852 -10.855,-71.15 -29.48,-99.947l-599.704,-1042.51c-30.957,-58.308 -92.28,-98.033 -162.901,-98.033l-316.93,-0l926.318,1604.97l146.011,-252.899c28.816,-48.439 36.686,-69.883 36.686,-111.584" style="fill:#454342;fill-rule:nonzero;"/><path d="M2288.49,1840.52l-414.022,-717.114l-414.029,717.114l828.051,-0Z" style="fill:#454342;fill-rule:nonzero;"/></g></svg>